<svg width="112" height="99" viewBox="0 0 112 99" fill="none" xmlns="http://www.w3.org/2000/svg">
<path d="M75 8H36C34.3431 8 33 9.34315 33 11V59C33 60.6569 34.3431 62 36 62H75C76.6569 62 78 60.6569 78 59V11C78 9.34315 76.6569 8 75 8Z" stroke="#4D4D4F" stroke-width="3" stroke-linejoin="round"/>
<path d="M43.5 48.5H55.5M46.5 2V11V2ZM64.5 2V11V2ZM43.5 24.5H67.5H43.5ZM43.5 36.5H61.5H43.5Z" stroke="#4D4D4F" stroke-width="3" stroke-linecap="round" stroke-linejoin="round"/>
<path d="M1.022 96H2.17V87.278L1.988 86.452H2.31L7.224 96H9.534V86.13H8.4V94.852L8.582 95.678H8.26L3.332 86.13H1.022V96ZM11.1053 92.514C11.1053 94.544 12.5613 96.14 14.7873 96.14C16.9993 96.14 18.4413 94.544 18.4413 92.514C18.4413 90.498 16.9993 88.902 14.7873 88.902C12.5613 88.902 11.1053 90.498 11.1053 92.514ZM12.2533 92.514C12.2533 91.072 13.1353 89.882 14.7873 89.882C16.4253 89.882 17.3073 91.072 17.3073 92.514C17.3073 93.97 16.4253 95.16 14.7873 95.16C13.1353 95.16 12.2533 93.97 12.2533 92.514ZM26.8398 95.174V90.022H29.0098V89.042H26.8398V86.9L25.7058 87.25V89.042H24.1658V90.022H25.7058V95.188C25.7058 95.832 25.9998 96.182 26.6578 96.14L29.2898 96V95.02L26.8398 95.174ZM30.8814 96H32.0294V89.896L35.7114 90.022V89.042L31.8474 88.916C31.1894 88.888 30.8814 89.21 30.8814 89.868V96ZM36.74 94.068C36.74 94.796 37.048 96.14 39.064 96.14C40.744 96.14 41.486 95.146 41.752 94.082H42.088L41.906 94.81V95.188C41.906 95.706 42.2 96 42.732 96H43.964V95.02H42.942V92.052C42.942 90.19 41.78 88.902 39.834 88.902C37.86 88.902 36.768 90.19 36.768 91.632H37.888C37.888 90.316 38.826 89.868 39.834 89.868C41.038 89.868 41.724 90.498 41.794 91.772L39.022 92.038C37.398 92.206 36.74 92.962 36.74 94.068ZM37.888 93.928C37.888 93.242 38.336 92.976 39.218 92.892L41.794 92.626C41.794 94.068 40.786 95.16 39.204 95.16C38.392 95.16 37.888 94.726 37.888 93.928ZM48.9319 89.882C50.1219 89.882 50.6959 90.442 50.6959 91.898V96H51.8299V91.744C51.8299 89.812 50.8079 88.902 49.2399 88.902C47.7279 88.902 46.8459 89.784 46.5659 91.044H46.2439L46.4259 90.246V89.042H45.2779V96H46.4259V92.92C46.4259 91.044 47.4619 89.882 48.9319 89.882ZM59.1881 94.194C59.1881 92.696 57.7041 92.388 56.3321 91.94C55.2121 91.576 54.7361 91.366 54.7361 90.694C54.7361 90.064 55.3521 89.84 56.1221 89.84C57.2281 89.84 57.8021 90.302 57.8021 91.24H58.9501C58.9501 90.092 58.2921 88.902 56.1221 88.902C54.5261 88.902 53.5881 89.63 53.5881 90.736C53.5881 91.996 54.6521 92.402 55.9681 92.822C57.1021 93.172 58.0401 93.326 58.0401 94.236C58.0401 94.95 57.5361 95.202 56.4581 95.202C55.1141 95.202 54.4141 94.642 54.4141 93.438H53.2661C53.2661 95.09 54.1901 96.14 56.4441 96.14C58.5301 96.14 59.1881 95.244 59.1881 94.194ZM60.2557 94.068C60.2557 94.796 60.5637 96.14 62.5797 96.14C64.2597 96.14 65.0017 95.146 65.2677 94.082H65.6037L65.4217 94.81V95.188C65.4217 95.706 65.7157 96 66.2477 96H67.4797V95.02H66.4577V92.052C66.4577 90.19 65.2957 88.902 63.3497 88.902C61.3757 88.902 60.2837 90.19 60.2837 91.632H61.4037C61.4037 90.316 62.3417 89.868 63.3497 89.868C64.5537 89.868 65.2397 90.498 65.3097 91.772L62.5377 92.038C60.9137 92.206 60.2557 92.962 60.2557 94.068ZM61.4037 93.928C61.4037 93.242 61.8517 92.976 62.7337 92.892L65.3097 92.626C65.3097 94.068 64.3017 95.16 62.7197 95.16C61.9077 95.16 61.4037 94.726 61.4037 93.928ZM68.2674 92.514C68.2674 94.53 69.5694 96.14 71.8234 96.14C73.1674 96.14 74.8894 95.384 75.0714 93.368H73.9094C73.7134 94.698 72.8314 95.16 71.8234 95.16C70.1714 95.16 69.4154 93.956 69.4154 92.514C69.4154 91.086 70.1714 89.882 71.8234 89.882C72.8314 89.882 73.7134 90.344 73.9094 91.674H75.0714C74.8894 89.658 73.1674 88.902 71.8234 88.902C69.5694 88.902 68.2674 90.512 68.2674 92.514ZM78.3827 95.174V90.022H80.5527V89.042H78.3827V86.9L77.2487 87.25V89.042H75.7087V90.022H77.2487V95.188C77.2487 95.832 77.5427 96.182 78.2007 96.14L80.8327 96V95.02L78.3827 95.174ZM84.3726 87.936C84.9326 87.936 85.3806 87.516 85.3806 86.956C85.3806 86.424 84.9326 85.99 84.3726 85.99C83.7986 85.99 83.3646 86.424 83.3646 86.956C83.3646 87.516 83.7986 87.936 84.3726 87.936ZM82.0486 96H87.0466V95.02H85.0866V89.742C85.0866 89.21 84.8346 88.846 84.1766 88.902L82.5666 89.042V90.022L84.0086 89.896V95.02H82.0486V96ZM87.8318 92.514C87.8318 94.544 89.2878 96.14 91.5138 96.14C93.7258 96.14 95.1678 94.544 95.1678 92.514C95.1678 90.498 93.7258 88.902 91.5138 88.902C89.2878 88.902 87.8318 90.498 87.8318 92.514ZM88.9798 92.514C88.9798 91.072 89.8618 89.882 91.5138 89.882C93.1518 89.882 94.0338 91.072 94.0338 92.514C94.0338 93.97 93.1518 95.16 91.5138 95.16C89.8618 95.16 88.9798 93.97 88.9798 92.514ZM100.42 89.882C101.61 89.882 102.184 90.442 102.184 91.898V96H103.318V91.744C103.318 89.812 102.296 88.902 100.728 88.902C99.2161 88.902 98.3341 89.784 98.0541 91.044H97.7321L97.9141 90.246V89.042H96.7661V96H97.9141V92.92C97.9141 91.044 98.9501 89.882 100.42 89.882ZM110.676 94.194C110.676 92.696 109.192 92.388 107.82 91.94C106.7 91.576 106.224 91.366 106.224 90.694C106.224 90.064 106.84 89.84 107.61 89.84C108.716 89.84 109.29 90.302 109.29 91.24H110.438C110.438 90.092 109.78 88.902 107.61 88.902C106.014 88.902 105.076 89.63 105.076 90.736C105.076 91.996 106.14 92.402 107.456 92.822C108.59 93.172 109.528 93.326 109.528 94.236C109.528 94.95 109.024 95.202 107.946 95.202C106.602 95.202 105.902 94.642 105.902 93.438H104.754C104.754 95.09 105.678 96.14 107.932 96.14C110.018 96.14 110.676 95.244 110.676 94.194Z" fill="#808081"/>
</svg>
