<svg width="305" height="344" viewBox="0 0 305 344" fill="none" xmlns="http://www.w3.org/2000/svg">
<rect x="0.5" y="0.5" width="304" height="343" fill="#08C052"/>
<path d="M221.24 24.68C210.968 24.68 204.92 31.736 204.92 42.056C204.92 52.424 210.968 59.48 221.24 59.48C231.464 59.48 237.512 52.424 237.512 42.056C237.512 31.736 231.464 24.68 221.24 24.68ZM221.24 31.4C223.112 31.4 224.744 31.832 226.04 32.696L213.128 46.472C212.792 45.176 212.6 43.736 212.6 42.056C212.6 35.096 215.816 31.4 221.24 31.4ZM221.24 52.76C219.368 52.76 217.736 52.328 216.392 51.416L229.304 37.64C229.64 38.936 229.832 40.424 229.832 42.056C229.832 49.064 226.664 52.76 221.24 52.76ZM240.393 38.6L243.081 45.56C253.497 42.344 255.177 35.816 255.753 27.08H257.673L256.233 31.4V59H263.913V25.16H248.985C248.985 32.888 246.633 36.152 240.393 38.6Z" fill="white"/>
<rect x="43" y="148" width="220" height="48" fill="#090B13"/>
<path d="M115.7 171.058C115.7 173.942 117.604 176.14 120.74 176.14C123.862 176.14 125.766 173.942 125.766 171.058C125.766 168.188 123.862 165.99 120.74 165.99C117.604 165.99 115.7 168.188 115.7 171.058ZM117.94 171.058C117.94 169.168 118.878 167.95 120.74 167.95C122.602 167.95 123.526 169.168 123.526 171.058C123.526 172.962 122.602 174.18 120.74 174.18C118.878 174.18 117.94 172.962 117.94 171.058ZM127.037 168.93V178.66H129.277V175.566L128.857 174.306H129.417C129.781 175.244 130.453 176.14 132.203 176.14C134.247 176.14 135.269 174.474 135.269 172.472C135.269 170.47 134.247 168.79 132.203 168.79C130.453 168.79 129.781 169.686 129.417 170.624H128.857L129.277 169.364V168.93H127.037ZM129.277 172.472C129.277 171.268 129.949 170.75 131.153 170.75C132.357 170.75 133.029 171.268 133.029 172.472C133.029 173.676 132.357 174.18 131.153 174.18C129.949 174.18 129.277 173.676 129.277 172.472ZM135.972 172.374C135.972 174.376 137.218 176.14 139.934 176.14C142.384 176.14 143.546 174.53 143.686 173.508H141.446C141.306 174.04 140.718 174.32 139.934 174.32C138.66 174.32 138.072 173.746 138.072 172.934H143.434V172.234C143.434 170.092 141.894 168.79 139.696 168.79C137.498 168.79 135.972 170.134 135.972 172.374ZM138.072 171.674C138.072 171.142 138.45 170.61 139.696 170.61C140.942 170.61 141.334 171.142 141.334 171.674H138.072ZM148.916 170.75C149.994 170.75 150.372 171.24 150.372 172.528V176H152.612V172.178C152.612 169.994 151.52 168.79 149.714 168.79C148.202 168.79 147.32 169.784 147.04 171.044H146.48L146.9 169.784V168.93H144.66V176H146.9V173.382C146.9 171.394 147.698 170.75 148.916 170.75ZM157.792 172.458C157.792 174.824 159.402 176.14 161.656 176.14C163.588 176.14 165.352 175.09 165.45 173.074H163.21C163.126 173.704 162.552 174.18 161.656 174.18C160.592 174.18 160.032 173.55 160.032 172.458C160.032 171.38 160.592 170.75 161.656 170.75C162.552 170.75 163.126 171.226 163.21 171.856H165.45C165.352 169.84 163.588 168.79 161.656 168.79C159.402 168.79 157.792 170.106 157.792 172.458ZM166.146 174.068C166.146 174.796 166.524 176.14 168.722 176.14C170.696 176.14 171.382 175.146 171.648 173.97H172.208L171.858 174.81V174.95C171.858 175.622 172.236 176 172.908 176H174.462V174.04H173.44V172.052C173.44 169.728 171.732 168.79 169.786 168.79C167.812 168.79 166.286 169.84 166.286 171.632H168.386C168.386 170.988 168.89 170.61 169.786 170.61C170.752 170.61 171.2 170.96 171.2 171.534L168.974 171.842C166.874 172.136 166.146 172.85 166.146 174.068ZM168.386 173.648C168.386 173.242 168.722 173.144 169.394 173.046L171.2 172.794C171.2 173.662 170.388 174.18 169.156 174.18C168.778 174.18 168.386 174.054 168.386 173.648ZM175.299 176H177.539V170.806L181.137 170.89V168.93L176.503 168.818C175.733 168.804 175.299 169.224 175.299 169.994V176ZM189.937 176V165.71H187.697V169.364L188.117 170.624H187.557C187.193 169.686 186.521 168.79 184.771 168.79C182.727 168.79 181.705 170.456 181.705 172.458C181.705 174.46 182.727 176.14 184.771 176.14C186.521 176.14 187.193 175.244 187.557 174.306H188.117L187.697 175.566V176H189.937ZM187.697 172.458C187.697 173.648 187.025 174.18 185.821 174.18C184.617 174.18 183.945 173.648 183.945 172.458C183.945 171.268 184.617 170.75 185.821 170.75C187.025 170.75 187.697 171.268 187.697 172.458Z" fill="white"/>
<rect x="0.5" y="0.5" width="304" height="343" stroke="#FFBB0D"/>
</svg>
