<svg width="184" height="19" viewBox="0 0 184 19" fill="none" xmlns="http://www.w3.org/2000/svg">
<path d="M24.2 15H27.4V10.04H32.92V15H36.12V10.5C36.12 9.4 35.52 8.8 34.42 8.8H32.36V8C34.06 7.8 35.94 7.16 35.94 4.84C35.94 1.68 33.02 0.899999 29.66 0.899999H24.2V15ZM27.4 7.24V3.7H29.66C31.56 3.7 32.74 3.7 32.74 5.48C32.74 7.24 31.56 7.24 29.66 7.24H27.4ZM37.5109 12.24C37.5109 13.28 38.0509 15.2 41.1909 15.2C44.0109 15.2 44.9909 13.78 45.3709 12.1H46.1709L45.6709 13.3V13.5C45.6709 14.46 46.2109 15 47.1709 15H49.3909V12.2H47.9309V9.36C47.9309 6.04 45.4909 4.7 42.7109 4.7C39.8909 4.7 37.7109 6.2 37.7109 8.76H40.7109C40.7109 7.84 41.4309 7.3 42.7109 7.3C44.0909 7.3 44.7309 7.8 44.7309 8.62L41.5509 9.06C38.5509 9.48 37.5109 10.5 37.5109 12.24ZM40.7109 11.64C40.7109 11.06 41.1909 10.92 42.1509 10.78L44.7309 10.42C44.7309 11.66 43.5709 12.4 41.8109 12.4C41.2709 12.4 40.7109 12.22 40.7109 11.64ZM50.5867 15H53.7867V14.38L53.1867 12.58H53.9867C54.5067 13.92 55.4667 15.2 57.9667 15.2C60.8867 15.2 62.3467 12.8 62.3467 9.94C62.3467 7.08 60.8867 4.7 57.9667 4.7C55.4667 4.7 54.5067 5.98 53.9867 7.32H53.1867L53.7867 5.52V0.3H50.5867V15ZM53.7867 9.94C53.7867 8.24 54.7467 7.5 56.4667 7.5C58.1867 7.5 59.1467 8.24 59.1467 9.94C59.1467 11.64 58.1867 12.4 56.4667 12.4C54.7467 12.4 53.7867 11.64 53.7867 9.94ZM63.5555 15H66.7555V14.38L66.1555 12.58H66.9555C67.4755 13.92 68.4355 15.2 70.9355 15.2C73.8555 15.2 75.3155 12.8 75.3155 9.94C75.3155 7.08 73.8555 4.7 70.9355 4.7C68.4355 4.7 67.4755 5.98 66.9555 7.32H66.1555L66.7555 5.52V0.3H63.5555V15ZM66.7555 9.94C66.7555 8.24 67.7155 7.5 69.4355 7.5C71.1555 7.5 72.1155 8.24 72.1155 9.94C72.1155 11.64 71.1555 12.4 69.4355 12.4C67.7155 12.4 66.7555 11.64 66.7555 9.94ZM80.2642 3.9C81.4442 3.9 82.1842 3.34 82.1842 2.3C82.1842 1.28 81.4442 0.699999 80.2642 0.699999C79.0842 0.699999 78.3842 1.28 78.3842 2.3C78.3842 3.34 79.0842 3.9 80.2642 3.9ZM76.1242 15H84.9242V12.2H82.0642V6.38C82.0642 5.26 81.4442 4.64 80.3242 4.7L76.5242 4.9V7.7L78.9842 7.58V12.2H76.1242V15ZM89.718 12.4V7.7H93.038V4.9H89.718V2L86.518 3V4.9H84.118V7.7H86.518V13.5C86.518 14.6 87.118 15.24 88.218 15.2L93.438 15V12.2L89.718 12.4ZM100.641 7.94C100.641 12.06 103.401 15.2 107.881 15.2C111.821 15.2 114.421 13.04 114.841 9.54H111.641C111.321 11.4 109.841 12.4 107.921 12.4C105.461 12.4 103.841 10.86 103.841 7.94C103.841 5.04 105.461 3.5 107.921 3.5C109.841 3.5 111.321 4.48 111.641 6.34H114.841C114.421 2.86 111.821 0.699999 107.881 0.699999C103.401 0.699999 100.641 3.84 100.641 7.94ZM115.831 12.24C115.831 13.28 116.371 15.2 119.511 15.2C122.331 15.2 123.311 13.78 123.691 12.1H124.491L123.991 13.3V13.5C123.991 14.46 124.531 15 125.491 15H127.711V12.2H126.251V9.36C126.251 6.04 123.811 4.7 121.031 4.7C118.211 4.7 116.031 6.2 116.031 8.76H119.031C119.031 7.84 119.751 7.3 121.031 7.3C122.411 7.3 123.051 7.8 123.051 8.62L119.871 9.06C116.871 9.48 115.831 10.5 115.831 12.24ZM119.031 11.64C119.031 11.06 119.511 10.92 120.471 10.78L123.051 10.42C123.051 11.66 121.891 12.4 120.131 12.4C119.591 12.4 119.031 12.22 119.031 11.64ZM128.907 15H132.107V7.58L137.247 7.7V4.9L130.627 4.74C129.527 4.72 128.907 5.32 128.907 6.42V15ZM149.818 15V0.3H146.618V5.52L147.218 7.32H146.418C145.898 5.98 144.938 4.7 142.438 4.7C139.518 4.7 138.058 7.08 138.058 9.94C138.058 12.8 139.518 15.2 142.438 15.2C144.938 15.2 145.898 13.92 146.418 12.58H147.218L146.618 14.38V15H149.818ZM146.618 9.94C146.618 11.64 145.658 12.4 143.938 12.4C142.218 12.4 141.258 11.64 141.258 9.94C141.258 8.24 142.218 7.5 143.938 7.5C145.658 7.5 146.618 8.24 146.618 9.94ZM164.233 0.699999C159.953 0.699999 157.433 3.64 157.433 7.94C157.433 12.26 159.953 15.2 164.233 15.2C168.493 15.2 171.013 12.26 171.013 7.94C171.013 3.64 168.493 0.699999 164.233 0.699999ZM164.233 3.5C165.013 3.5 165.693 3.68 166.233 4.04L160.853 9.78C160.713 9.24 160.633 8.64 160.633 7.94C160.633 5.04 161.973 3.5 164.233 3.5ZM164.233 12.4C163.453 12.4 162.773 12.22 162.213 11.84L167.593 6.1C167.733 6.64 167.813 7.26 167.813 7.94C167.813 10.86 166.493 12.4 164.233 12.4ZM172.213 6.5L173.333 9.4C177.673 8.06 178.373 5.34 178.613 1.7H179.413L178.813 3.5V15H182.013V0.899999H175.793C175.793 4.12 174.813 5.48 172.213 6.5Z" fill="white"/>
<path fill-rule="evenodd" clip-rule="evenodd" d="M7.65079 0.240762C8.07012 0.600184 8.11868 1.23148 7.75926 1.65081L2.31708 8.00002L7.75926 14.3492C8.11868 14.7686 8.07012 15.3999 7.65079 15.7593C7.23147 16.1187 6.60017 16.0701 6.24074 15.6508L0.240743 8.65081C-0.0802478 8.27632 -0.0802478 7.72372 0.240743 7.34923L6.24074 0.349227C6.60017 -0.0700991 7.23147 -0.118661 7.65079 0.240762Z" fill="white"/>
</svg>
